<?xml version="1.0" encoding="UTF-8" standalone="no"?>
<!DOCTYPE svg PUBLIC "-//W3C//DTD SVG 1.1//EN" "http://www.w3.org/Graphics/SVG/1.1/DTD/svg11.dtd">
<svg width="100%" height="100%" viewBox="0 0 1446 331" version="1.1" xmlns="http://www.w3.org/2000/svg" xmlns:xlink="http://www.w3.org/1999/xlink" xml:space="preserve" xmlns:serif="http://www.serif.com/" style="fill-rule:evenodd;clip-rule:evenodd;stroke-linejoin:round;stroke-miterlimit:2;">
    <g transform="matrix(1,0,0,1,-1023.89,-1076.97)">
        <g transform="matrix(4.16667,0,0,4.16667,0,0)">
            <g transform="matrix(1,0,0,1,245.733,299.012)">
                <path d="M0,0C0,-23.176 17.55,-38.813 40.051,-38.813C58.727,-38.813 68.401,-28.575 73.352,-18.676L56.701,-10.8C54.226,-16.763 47.813,-21.713 40.051,-21.713C28.351,-21.713 19.687,-12.263 19.687,0C19.687,12.263 28.351,21.713 40.051,21.713C47.813,21.713 54.226,16.763 56.701,10.801L73.352,18.676C68.514,28.351 58.727,38.813 40.051,38.813C17.55,38.813 0,23.063 0,0" style="fill:white;fill-rule:nonzero;"/>
            </g>
        </g>
        <g transform="matrix(4.16667,0,0,4.16667,0,0)">
            <g transform="matrix(1,0,0,1,360.626,309.361)">
                <path d="M0,-0.111C0,-7.311 -4.275,-13.274 -11.926,-13.274C-19.464,-13.274 -23.626,-7.311 -23.626,-0.111C-23.626,7.201 -19.464,13.164 -11.926,13.164C-4.275,13.164 0,7.201 0,-0.111M-41.514,-0.111C-41.514,-15.412 -30.376,-28.575 -11.926,-28.575C6.75,-28.575 17.774,-15.412 17.774,-0.111C17.774,15.189 6.75,28.464 -11.926,28.464C-30.376,28.464 -41.514,15.189 -41.514,-0.111" style="fill:white;fill-rule:nonzero;"/>
            </g>
        </g>
        <g transform="matrix(4.16667,0,0,4.16667,0,0)">
            <g transform="matrix(1,0,0,1,385.603,301.036)">
                <path d="M0,16.539C4.05,20.139 12.713,23.739 19.126,23.739C24.301,23.739 26.438,22.052 26.438,19.688C26.438,16.876 22.726,15.863 17.101,14.964C7.875,13.389 -5.175,11.476 -5.175,-2.361C-5.175,-11.925 3.038,-20.25 18.113,-20.25C27.226,-20.25 34.988,-17.325 40.839,-13.05L34.201,-1.574C30.938,-4.725 24.751,-7.537 18.226,-7.537C14.176,-7.537 11.363,-6.187 11.363,-3.824C11.363,-1.35 14.288,-0.449 20.025,0.563C29.251,2.139 42.977,4.389 42.977,18.789C42.977,29.14 33.863,36.789 18.226,36.789C8.55,36.789 -1.463,33.527 -7.2,28.464L0,16.539Z" style="fill:white;fill-rule:nonzero;"/>
            </g>
        </g>
        <g transform="matrix(4.16667,0,0,4.16667,0,0)">
            <g transform="matrix(1,0,0,1,0,-0.333)">
                <path d="M432.968,282.469L450.294,282.469L450.294,336.808L432.968,336.808L432.968,282.469ZM431.73,268.706C431.73,263.193 436.118,258.806 441.631,258.806C447.144,258.806 451.531,263.193 451.531,268.706C451.531,274.218 447.144,278.606 441.631,278.606C436.118,278.606 431.73,274.218 431.73,268.706" style="fill:white;fill-rule:nonzero;"/>
            </g>
        </g>
        <g transform="matrix(4.16667,0,0,4.16667,0,0)">
            <g transform="matrix(1,0,0,1,457.493,283.262)">
                <path d="M0,38.587L0,13.949L-9,13.949L-9,-1.126L0,-1.126L0,-15.976L17.213,-15.976L17.213,-1.126L28.238,-1.126L28.238,13.949L17.213,13.949L17.213,33.75C17.213,36.9 19.013,39.263 22.051,39.263C23.963,39.263 25.876,38.587 26.438,37.912L29.813,50.963C27.676,52.988 23.4,54.563 16.988,54.563C5.963,54.563 0,49.05 0,38.587" style="fill:white;fill-rule:nonzero;"/>
            </g>
        </g>
        <g transform="matrix(4.16667,0,0,4.16667,0,0)">
            <g transform="matrix(1,0,0,1,504.07,315.099)">
                <path d="M0,-11.587L22.388,-11.587C21.938,-15.412 19.126,-20.925 11.138,-20.925C3.6,-20.925 0.675,-15.525 0,-11.587M11.138,-34.313C27.226,-34.313 38.926,-22.499 38.926,-4.049L38.926,-0.336L0.225,-0.336C1.237,4.726 5.963,9.339 14.063,9.339C18.9,9.339 24.301,7.427 27.338,4.726L34.651,15.526C29.251,20.364 20.251,22.726 11.925,22.726C-4.838,22.726 -17.775,11.813 -17.775,-5.849C-17.775,-21.6 -5.851,-34.313 11.138,-34.313" style="fill:white;fill-rule:nonzero;"/>
            </g>
        </g>
        <g transform="matrix(4.16667,0,0,4.16667,0,0)">
            <g transform="matrix(1,0,0,1,549.635,301.036)">
                <path d="M0,16.539C4.05,20.139 12.713,23.739 19.126,23.739C24.301,23.739 26.438,22.052 26.438,19.688C26.438,16.876 22.726,15.863 17.101,14.964C7.875,13.389 -5.175,11.476 -5.175,-2.361C-5.175,-11.925 3.038,-20.25 18.113,-20.25C27.226,-20.25 34.988,-17.325 40.839,-13.05L34.201,-1.574C30.938,-4.725 24.751,-7.537 18.226,-7.537C14.176,-7.537 11.363,-6.187 11.363,-3.824C11.363,-1.35 14.288,-0.449 20.025,0.563C29.251,2.139 42.977,4.389 42.977,18.789C42.977,29.14 33.863,36.789 18.226,36.789C8.55,36.789 -1.463,33.527 -7.2,28.464L0,16.539Z" style="fill:white;fill-rule:nonzero;"/>
            </g>
        </g>
    </g>
</svg>
